PathFileType	4	(X/Y/Z)	RBDS001static.trc
DataRate	CameraRate	NumFrames	NumMarkers	Units	OrigDataRate	OrigDataStartFrame	OrigNumFrames
150.000000	150.000000	4	48	mm	150.000000	56	150
Frame#	Time	L.Ankle			L.Ankle.Medial			L.ASIS			L.GTR			L.Heel.Bottom			L.Heel.Lateral			L.Heel.Top			L.HF			L.Iliac.Crest			L.Knee			L.Knee.Medial			L.MT1			L.MT2			L.MT5			L.PSIS			L.Shank.Bottom.Lateral			L.Shank.Bottom.Medial			L.Shank.Top.Lateral			L.Shank.Top.Medial			L.Thigh.Bottom.Lateral			L.Thigh.Bottom.Medial			L.Thigh.Top.Lateral			L.Thigh.Top.Medial			L.TT			R.Ankle			R.Ankle.Medial			R.ASIS			R.GTR			R.Heel.Bottom			R.Heel.Lateral			R.Heel.Top			R.HF			R.Iliac.Crest			R.Knee			R.Knee.Medial			R.MT1			R.MT2			R.MT5			R.PSIS			R.Shank.Bottom.Lateral			R.Shank.Bottom.Medial			R.Shank.Top.Lateral			R.Shank.Top.Medial			R.Thigh.Bottom.Lateral			R.Thigh.Bottom.Medial			R.Thigh.Top.Lateral			R.Thigh.Top.Medial			R.TT			
		X1	Y1	Z1	X2	Y2	Z2	X3	Y3	Z3	X4	Y4	Z4	X5	Y5	Z5	X6	Y6	Z6	X7	Y7	Z7	X8	Y8	Z8	X9	Y9	Z9	X10	Y10	Z10	X11	Y11	Z11	X12	Y12	Z12	X13	Y13	Z13	X14	Y14	Z14	X15	Y15	Z15	X16	Y16	Z16	X17	Y17	Z17	X18	Y18	Z18	X19	Y19	Z19	X20	Y20	Z20	X21	Y21	Z21	X22	Y22	Z22	X23	Y23	Z23	X24	Y24	Z24	X25	Y25	Z25	X26	Y26	Z26	X27	Y27	Z27	X28	Y28	Z28	X29	Y29	Z29	X30	Y30	Z30	X31	Y31	Z31	X32	Y32	Z32	X33	Y33	Z33	X34	Y34	Z34	X35	Y35	Z35	X36	Y36	Z36	X37	Y37	Z37	X38	Y38	Z38	X39	Y39	Z39	X40	Y40	Z40	X41	Y41	Z41	X42	Y42	Z42	X43	Y43	Z43	X44	Y44	Z44	X45	Y45	Z45	X46	Y46	Z46	X47	Y47	Z47	X48	Y48	Z48	

57	0.3733333333333334	705.0399169921875	108.7916717529297	1050.958251953125	725.5609741210938	119.2912445068359	1129.034545898438	877.6988525390625	1067.297241210938	1126.590942382813	799.9584350585938	965.5533447265625	1056.568481445313	633.3050537109375	43.01904296875	1085.125610351563	663.419921875	60.39127731323242	1046.80712890625	641.806640625	90.51776123046875	1088.862426757813	734.239990234375	490.5286865234375	1039.817138671875	816.6795043945313	1135.423583984375	1090.049438476563	751.8560791015625	550.5928955078125	1052.112426757813	732.1820678710938	539.875	1162.106079101563	854.9331665039063	62.82339859008789	1133.435791015625	861.025634765625	69.70269775390625	1088.605834960938	827.09033203125	56.58042907714844	1026.662109375	700.0032348632813	1099.078369140625	1181.564453125	713.3138427734375	191.6232604980469	1043.525268554688	670.39111328125	190.6841278076172	1071.961547851563	708.6951904296875	271.426513671875	1031.405883789063	665.4180297851563	274.7442932128906	1063.316772460938	742.9535522460938	675.582763671875	1043.08984375	689.887451171875	678.2857666015625	1093.680419921875	740.8721923828125	786.260986328125	1040.156982421875	696.0252685546875	788.944580078125	1093.060913085938	785.8775634765625	461.6385803222656	1091.733520507813	702.0184326171875	110.4663696289063	1397.380249023438	720.0083618164063	116.6397705078125	1314.74365234375	856.4456787109375	1060.513916015625	1337.016357421875	762.4462280273438	966.587158203125	1384.7314453125	627.5023193359375	42.56475067138672	1360.1044921875	658.37451171875	58.91303253173828	1403.300903320313	638.9087524414063	90.73329925537109	1359.654174804688	731.508056640625	491.4940795898438	1397.64404296875	793.6412353515625	1135.558471679688	1358.595336914063	734.4090576171875	553.2653198242188	1386.925048828125	730.8136596679688	540.0533447265625	1270.738037109375	850.1903076171875	64.42162322998047	1319.667724609375	855.0677490234375	73.15713500976563	1362.03857421875	829.7293090820313	56.37601470947266	1427.136840820313	696.444091796875	1097.84521484375	1258.297241210938	702.1314086914063	190.5005798339844	1400.77978515625	660.7477416992188	194.2222137451172	1364.875244140625	698.4326782226563	271.234375	1410.733154296875	658.7271118164063	273.8468933105469	1373.718383789063	734.1181640625	651.17529296875	1396.516723632813	679.804931640625	650.4844360351563	1345.917358398438	726.2399291992188	761.775146484375	1398.907958984375	677.620849609375	760.4556884765625	1348.247192382813	780.8338012695313	462.6022033691406	1343.730346679688	
58	0.38	705.0382080078125	108.7882461547852	1050.969116210938	725.5621337890625	119.2847213745117	1129.0390625	877.7213134765625	1067.293579101563	1126.598876953125	799.9766235351563	965.5604858398438	1056.583251953125	633.3076171875	43.0205078125	1085.12841796875	663.4177856445313	60.38612365722656	1046.812622070313	641.814453125	90.52101898193359	1088.8701171875	734.2472534179688	490.5357360839844	1039.823364257813	816.688720703125	1135.421142578125	1090.051513671875	751.885498046875	550.5916137695313	1052.14501953125	732.1974487304688	539.868408203125	1162.115234375	854.9376831054688	62.82497787475586	1133.438110351563	861.0206298828125	69.69463348388672	1088.607177734375	827.0902099609375	56.58178329467773	1026.665283203125	700.0440673828125	1099.083618164063	1181.586669921875	713.3193969726563	191.6224670410156	1043.533447265625	670.4019775390625	190.6854095458984	1071.963012695313	708.6990966796875	271.4284362792969	1031.414184570313	665.4229736328125	274.7478332519531	1063.322631835938	742.9614868164063	675.5787353515625	1043.104858398438	689.8961791992188	678.284912109375	1093.703491210938	740.8684692382813	786.2653198242188	1040.172973632813	696.0382080078125	788.94677734375	1093.083251953125	785.884033203125	461.64208984375	1091.739501953125	701.7145385742188	110.6305847167969	1397.620971679688	720.0138549804688	116.6334228515625	1314.746826171875	856.4881591796875	1060.507446289063	1337.021728515625	762.4926147460938	966.5924682617188	1384.751586914063	627.5025634765625	42.56674575805664	1360.103515625	658.3734130859375	58.91983413696289	1403.306640625	638.9105224609375	90.73816680908203	1359.643310546875	731.5240478515625	491.4965209960938	1397.643920898438	793.6937866210938	1135.569213867188	1358.589721679688	734.426025390625	553.2617797851563	1386.93603515625	730.8236694335938	540.0552978515625	1270.744262695313	850.197509765625	64.41791534423828	1319.669799804688	855.0769653320313	73.16051483154297	1362.037475585938	829.7267456054688	56.3738899230957	1427.1279296875	696.4862060546875	1097.85400390625	1258.327880859375	702.1348266601563	190.5015106201172	1400.77783203125	660.7483520507813	194.2210083007813	1364.874755859375	698.4407958984375	271.2333068847656	1410.731567382813	658.7333984375	273.8451843261719	1373.719116210938	734.1511840820313	651.1862182617188	1396.521850585938	679.8319702148438	650.4932250976563	1345.926635742188	726.27392578125	761.7784423828125	1398.919311523438	677.6535034179688	760.4605102539063	1348.26611328125	780.8414306640625	462.6040954589844	1343.732299804688	
59	0.3866666666666667	705.0406494140625	108.7959671020508	1050.970458984375	725.5667724609375	119.2940444946289	1129.0419921875	877.7396850585938	1067.292602539063	1126.588256835938	800.0043334960938	965.5521240234375	1056.602294921875	633.30126953125	43.02135848999023	1085.136352539063	663.417724609375	60.39540100097656	1046.811767578125	641.8031616210938	90.53066253662109	1088.861938476563	734.2566528320313	490.5312805175781	1039.839965820313	816.7054443359375	1135.42919921875	1090.060180664063	751.8889770507813	550.5992431640625	1052.165649414063	732.2177734375	539.8748779296875	1162.1220703125	854.9307250976563	62.82089233398438	1133.439575195313	861.0191650390625	69.70236968994141	1088.60546875	827.0911254882813	56.58066940307617	1026.665893554688	700.073974609375	1099.093627929688	1181.6123046875	713.3201904296875	191.6322479248047	1043.541748046875	670.404052734375	190.6882171630859	1071.968872070313	708.696533203125	271.4348754882813	1031.421630859375	665.4230346679688	274.7511596679688	1063.3369140625	742.9732055664063	675.5809326171875	1043.117553710938	689.9073486328125	678.2980346679688	1093.710815429688	740.8838500976563	786.2717895507813	1040.184204101563	696.0562744140625	788.9470825195313	1093.104736328125	785.8854370117188	461.6372375488281	1091.741333007813	701.71630859375	110.6230392456055	1397.611450195313	720.0125122070313	116.6347045898438	1314.742065429688	856.5372314453125	1060.510009765625	1337.02099609375	762.541259765625	966.5948486328125	1384.744873046875	627.5082397460938	42.56764221191406	1360.110595703125	658.3765869140625	58.91811370849609	1403.30126953125	638.9119262695313	90.73382568359375	1359.652954101563	731.5496826171875	491.49609375	1397.661376953125	793.7518920898438	1135.5693359375	1358.599731445313	734.4459228515625	553.2716064453125	1386.947631835938	730.8285522460938	540.0556030273438	1270.747802734375	850.1890258789063	64.42473602294922	1319.664794921875	855.0718994140625	73.16326141357422	1362.038452148438	829.720947265625	56.37538909912109	1427.132446289063	696.5264892578125	1097.855834960938	1258.340698242188	702.1519165039063	190.5005950927734	1400.77587890625	660.7603759765625	194.2269134521484	1364.881591796875	698.457763671875	271.2421264648438	1410.730834960938	658.7509155273438	273.8464050292969	1373.72802734375	734.1767578125	651.1796875	1396.537841796875	679.848876953125	650.4940795898438	1345.94580078125	726.31494140625	761.7761840820313	1398.929931640625	677.6817626953125	760.4681396484375	1348.27392578125	780.8574829101563	462.6035461425781	1343.731201171875	
60	0.3933333333333334	705.04296875	108.8059387207031	1050.969360351563	725.5616455078125	119.2853393554688	1129.045776367188	877.7644653320313	1067.295043945313	1126.593872070313	800.0096435546875	965.5586547851563	1056.599365234375	633.3046875	43.02600479125977	1085.127075195313	663.41357421875	60.39419555664063	1046.816650390625	641.8053588867188	90.53298187255859	1088.874755859375	734.2664794921875	490.5318603515625	1039.856689453125	816.7164306640625	1135.423950195313	1090.065185546875	751.905517578125	550.60205078125	1052.173828125	732.2374267578125	539.8768310546875	1162.135375976563	854.9348754882813	62.8237190246582	1133.44140625	861.020263671875	69.70507049560547	1088.606811523438	827.0867919921875	56.58676910400391	1026.666870117188	700.1033935546875	1099.094970703125	1181.632690429688	713.3215942382813	191.6338195800781	1043.54833984375	670.4080810546875	190.6954803466797	1071.983276367188	708.7044067382813	271.4397583007813	1031.428833007813	665.4344482421875	274.7500915527344	1063.349975585938	742.9891357421875	675.5850830078125	1043.132080078125	689.9270629882813	678.28955078125	1093.7314453125	740.8970947265625	786.266357421875	1040.19482421875	696.0762939453125	788.9437255859375	1093.124145507813	785.9112548828125	461.6370239257813	1091.749633789063	701.7194213867188	110.6360092163086	1397.617065429688	720.0101318359375	116.6362075805664	1314.744995117188	856.5844116210938	1060.510498046875	1337.031005859375	762.5946655273438	966.5851440429688	1384.763793945313	627.5014038085938	42.56806564331055	1360.104125976563	658.3759155273438	58.92631530761719	1403.3037109375	638.910400390625	90.74385070800781	1359.644165039063	731.568603515625	491.4992065429688	1397.6669921875	793.7959594726563	1135.577270507813	1358.596069335938	734.4755249023438	553.2703857421875	1386.94189453125	730.8516235351563	540.0663452148438	1270.748901367188	850.1915283203125	64.41873931884766	1319.661987304688	855.0767211914063	73.15927124023438	1362.036499023438	829.72412109375	56.37623596191406	1427.132934570313	696.558837890625	1097.865356445313	1258.371215820313	702.1524047851563	190.5034637451172	1400.773803710938	660.7616577148438	194.2353515625	1364.887817382813	698.470703125	271.2433471679688	1410.73876953125	658.7628784179688	273.8587951660156	1373.736206054688	734.2083129882813	651.1812133789063	1396.5390625	679.8776245117188	650.5014038085938	1345.954956054688	726.3590698242188	761.7743530273438	1398.949584960938	677.7179565429688	760.4688720703125	1348.286865234375	780.87744140625	462.6116638183594	1343.735473632813	
